<?xml version="1.0" encoding="iso-8859-1"?>
<!-- Generator: Adobe Illustrator 19.0.0, SVG Export Plug-In . SVG Version: 6.00 Build 0)  -->
<svg version="1.1" id="Layer_1" xmlns="http://www.w3.org/2000/svg" xmlns:xlink="http://www.w3.org/1999/xlink" x="0px" y="0px"
	 viewBox="0 0 512 512" style="enable-background:new 0 0 512 512;" xml:space="preserve">
<path style="fill:#A3875E;" d="M255.999,177.491c-28.553,0.185-51.615,18.656-51.615,41.413c0,22.747,23.062,41.229,51.615,41.413
	c28.553-0.185,51.615-18.667,51.615-41.413C307.615,196.147,284.553,177.676,255.999,177.491z M80.405,486.074H38.893
	c0-15.812,6.414-30.126,16.767-40.491c10.364-10.365,24.678-16.767,40.481-16.767c20.262,0,36.671-16.409,36.671-36.671V283.912
	v-65.007v-65.018v-4.352c0-68.122,55.109-123.372,123.188-123.601c68.078,0.228,123.188,55.479,123.188,123.601v6.001v63.369v63.369
	v109.872c0,10.126,4.103,19.296,10.733,25.938c6.642,6.631,15.801,10.733,25.938,10.733c15.801,0,30.116,6.403,40.481,16.767
	c10.353,10.364,16.767,24.678,16.767,40.491h-41.511h-36.692h-43.649c-15.791,0-28.596-12.806-28.596-28.608v-82.599
	c0-18.406-7.467-35.064-19.524-47.133c-12.057-12.057-28.727-19.513-47.133-19.513c-36.812,0-66.656,29.834-66.656,66.646v82.599
	c0,15.801-12.806,28.608-28.596,28.608h-43.649H80.405V486.074z"/>
<g>
	<path style="fill:#DBB67E;" d="M351.253,486.074H160.747c15.791,0,28.596-12.806,28.596-28.608v-82.599
		c0-36.812,29.844-66.646,66.656-66.646c18.406,0,35.076,7.456,47.133,19.513c12.057,12.068,19.524,28.727,19.524,47.133v82.599
		C322.657,473.269,335.462,486.074,351.253,486.074z"/>
	<path style="fill:#DBB67E;" d="M255.999,177.491c28.553,0.185,51.615,18.656,51.615,41.413c0,22.747-23.062,41.229-51.615,41.413
		c-28.553-0.185-51.615-18.667-51.615-41.413C204.385,196.147,227.447,177.676,255.999,177.491z"/>
</g>
<path d="M326.417,47.674c-3.749,4.505-3.136,11.196,1.369,14.945c1.236,1.029,2.468,2.1,3.662,3.181
	c2.032,1.842,4.582,2.751,7.125,2.751c2.891,0,5.771-1.174,7.865-3.484c3.937-4.342,3.608-11.053-0.733-14.991
	c-1.416-1.282-2.876-2.551-4.342-3.772C336.857,42.557,330.165,43.17,326.417,47.674z"/>
<path d="M219.861,123.683c2.717,0,5.432-1.037,7.504-3.109c4.144-4.144,4.143-10.864-0.001-15.008l-6.49-6.489
	c-4.143-4.145-10.864-4.144-15.008,0.001c-4.144,4.144-4.143,10.864,0.001,15.008l6.49,6.489
	C214.43,122.647,217.145,123.683,219.861,123.683z"/>
<path d="M212.846,256.35c11.377,9.127,26.333,14.271,42.26,14.557c0.154,0.006,0.305,0.023,0.459,0.023h0.434h0.068h0.366
	c0.132,0,0.26-0.015,0.389-0.02c15.913-0.259,30.92-5.408,42.329-14.561c12.299-9.864,19.073-23.163,19.073-37.446
	c0-14.287-6.774-27.587-19.073-37.45c-11.377-9.123-26.332-14.266-42.26-14.551c-0.153-0.006-0.303-0.023-0.458-0.023h-0.434h-0.068
	h-0.366c-0.132,0-0.259,0.015-0.389,0.02c-15.914,0.259-30.92,5.407-42.329,14.555c-12.299,9.863-19.073,23.163-19.073,37.45
	C193.774,233.187,200.546,246.486,212.846,256.35z M255.966,188.105c22.631,0.159,41.037,13.971,41.037,30.799
	c0,16.83-18.406,30.641-40.968,30.8c-22.631-0.159-41.037-13.971-41.037-30.8C214.998,202.076,233.403,188.264,255.966,188.105z"/>
<path d="M299.641,120.574l6.49-6.489c4.144-4.143,4.145-10.862,0.001-15.008c-4.142-4.143-10.862-4.144-15.008-0.001l-6.49,6.489
	c-4.144,4.143-4.145,10.862-0.001,15.008c2.071,2.073,4.788,3.109,7.504,3.109C294.854,123.683,297.57,122.646,299.641,120.574z"/>
<path d="M250.411,229.517h11.178c5.86,0,10.612-4.752,10.612-10.612s-4.752-10.612-10.612-10.612h-11.178
	c-5.86,0-10.612,4.752-10.612,10.612S244.55,229.517,250.411,229.517z"/>
<path d="M501.388,475.462h-18.501c-2.201-14.09-8.764-27.091-19.043-37.383c-12.817-12.817-29.859-19.875-47.985-19.875
	c-6.963,0-13.51-2.71-18.427-7.619c-4.922-4.929-7.631-11.478-7.631-18.439v-91.498l7.948,4.589c1.67,0.965,3.495,1.423,5.293,1.423
	c3.669,0,7.236-1.905,9.202-5.31c2.93-5.076,1.189-11.565-3.887-14.495L389.8,276.141v-46.624h33.928
	c5.86,0,10.612-4.752,10.612-10.612s-4.752-10.612-10.612-10.612H389.8v-46.631l18.559-10.718c5.075-2.931,6.814-9.421,3.882-14.496
	c-2.931-5.076-9.419-6.819-14.496-3.882l-8.503,4.91c-1.828-20.373-8.257-40.071-18.896-57.571
	c-3.045-5.007-9.571-6.598-14.581-3.555c-5.008,3.045-6.6,9.573-3.555,14.581c10.685,17.576,16.341,37.794,16.364,58.481
	l-30.214,17.447c-5.075,2.932-6.814,9.421-3.883,14.497c1.966,3.404,5.533,5.307,9.201,5.307c1.8,0,3.625-0.46,5.296-1.424
	l19.602-11.32v34.375H355.15c-5.86,0-10.612,4.752-10.612,10.612s4.752,10.612,10.612,10.612h13.426v34.371l-19.602-11.317
	c-5.078-2.931-11.566-1.19-14.497,3.883c-2.931,5.076-1.192,11.566,3.883,14.497l30.216,17.443v103.75
	c0,9.425,2.741,18.43,7.847,26.113H359.73c-5.86,0-10.612,4.752-10.612,10.612c0,5.86,4.752,10.612,10.612,10.612h58.289
	c0.011,0,0.021-0.001,0.032-0.001c11.634,0.535,22.496,5.316,30.781,13.603c6.252,6.257,10.497,13.976,12.444,22.379h-19.068v-7.837
	c0-5.86-4.752-10.612-10.612-10.612c-5.86,0-10.612,4.752-10.612,10.612v7.837h-15.468v-7.837c0-5.86-4.752-10.612-10.612-10.612
	c-5.86,0-10.612,4.752-10.612,10.612v7.837h-33.037c-9.917,0-17.984-8.072-17.984-17.995v-82.6c0-20.626-8.036-40.028-22.632-54.635
	c-14.586-14.588-33.989-22.622-54.636-22.622c-42.606,0-77.269,34.658-77.269,77.258v82.6c0,9.923-8.068,17.995-17.984,17.995
	h-33.037v-7.837c0-5.86-4.752-10.612-10.612-10.612s-10.612,4.752-10.612,10.612v7.837H91.017v-7.837
	c0-5.86-4.752-10.612-10.612-10.612s-10.612,4.752-10.612,10.612v7.837H50.724c1.946-8.402,6.192-16.12,12.439-22.374
	c8.289-8.29,19.152-13.072,30.786-13.607c0.011,0,0.021,0.001,0.032,0.001h58.289c5.86,0,10.612-4.752,10.612-10.612
	c0-5.86-4.752-10.612-10.612-10.612h-16.736c4.98-7.488,7.891-16.466,7.891-26.113V290.043l33.067-19.09
	c5.076-2.93,6.816-9.42,3.886-14.496c-2.931-5.076-9.42-6.816-14.496-3.886l-22.457,12.965v-36.019h16.281
	c5.86,0,10.612-4.752,10.612-10.612s-4.752-10.612-10.612-10.612h-16.281v-36.021l22.455,12.968
	c1.671,0.965,3.497,1.424,5.296,1.424c3.668,0,7.234-1.904,9.201-5.307c2.931-5.075,1.192-11.565-3.883-14.497l-33.047-19.085
	c0.944-61.276,51.063-111.001,112.551-111.227c16.471,0.06,32.333,3.581,47.143,10.462c1.446,0.673,2.968,0.991,4.464,0.991
	c4.002,0,7.834-2.274,9.63-6.142c2.47-5.315,0.163-11.625-5.151-14.095c-17.364-8.069-35.933-12.245-55.2-12.428
	c-0.151-0.006-0.298-0.022-0.451-0.022c-0.141,0-0.289,0.004-0.434,0.007c-0.145-0.003-0.293-0.007-0.434-0.007
	c-0.15,0-0.294,0.016-0.443,0.022c-68.78,0.655-125.412,53.437-132.234,120.568l-5.78-3.339c-5.077-2.931-11.565-1.191-14.497,3.883
	c-2.931,5.075-1.192,11.565,3.883,14.497l15.706,9.07v48.278H91.138c-5.86,0-10.612,4.752-10.612,10.612s4.752,10.612,10.612,10.612
	h31.062v48.271l-15.706,9.067c-5.075,2.932-6.814,9.421-3.883,14.497c1.966,3.404,5.533,5.307,9.201,5.307
	c1.8,0,3.625-0.46,5.296-1.424l5.092-2.94v89.849c0,14.369-11.69,26.059-26.059,26.059c-18.126,0-35.168,7.058-47.99,19.88
	c-10.276,10.287-16.838,23.288-19.039,37.379H10.612C4.752,475.462,0,480.214,0,486.074c0,5.86,4.752,10.612,10.612,10.612h490.776
	c5.86,0,10.612-4.752,10.612-10.612C512,480.214,507.248,475.462,501.388,475.462z M199.955,457.467v-82.6
	c0-30.897,25.141-56.034,56.045-56.034c14.977,0,29.05,5.826,39.625,16.402c10.589,10.597,16.42,24.672,16.42,39.632v82.6
	c0,6.484,1.591,12.601,4.388,17.995H195.566C198.364,470.068,199.955,463.951,199.955,457.467z"/>
<g>
</g>
<g>
</g>
<g>
</g>
<g>
</g>
<g>
</g>
<g>
</g>
<g>
</g>
<g>
</g>
<g>
</g>
<g>
</g>
<g>
</g>
<g>
</g>
<g>
</g>
<g>
</g>
<g>
</g>
</svg>
